<?xml version="1.0" encoding="utf-8"?>
<!-- Generator: Adobe Illustrator 16.0.0, SVG Export Plug-In . SVG Version: 6.00 Build 0)  -->
<!DOCTYPE svg PUBLIC "-//W3C//DTD SVG 1.1//EN" "http://www.w3.org/Graphics/SVG/1.1/DTD/svg11.dtd">
<svg version="1.1"
	 id="svg2" xmlns:cc="http://creativecommons.org/ns#" xmlns:dc="http://purl.org/dc/elements/1.1/" xmlns:inkscape="http://www.inkscape.org/namespaces/inkscape" xmlns:rdf="http://www.w3.org/1999/02/22-rdf-syntax-ns#" xmlns:sodipodi="http://sodipodi.sourceforge.net/DTD/sodipodi-0.dtd" xmlns:svg="http://www.w3.org/2000/svg"
	 xmlns="http://www.w3.org/2000/svg" xmlns:xlink="http://www.w3.org/1999/xlink" x="0px" y="0px" width="512px" height="512px"
	 viewBox="0 0 512 512" enable-background="new 0 0 512 512" xml:space="preserve">
<g id="layer1" transform="translate(0,-540.3622)">
	<path id="path3766-1" fill="#FFFFFF" d="M127.406,657.781c-4.985,0.079-9.911,2.163-13.438,5.688l-55,55
		c-3.601,3.6-5.697,8.659-5.697,13.75c0,5.091,2.096,10.151,5.697,13.75L242.25,929.25c3.599,3.601,8.659,5.697,13.75,5.697
		s10.15-2.097,13.75-5.697l183.281-183.281c3.601-3.599,5.697-8.659,5.697-13.75c0-5.091-2.097-10.15-5.697-13.75l-55-55
		c-3.598-3.591-8.65-5.681-13.734-5.681s-10.137,2.09-13.734,5.681L256,778.031L141.438,663.469
		C137.771,659.805,132.589,657.704,127.406,657.781z"/>
</g>
</svg>
